<?xml version="1.0" encoding="UTF-8" standalone="no"?>
<svg
   xmlns:dc="http://purl.org/dc/elements/1.1/"
   xmlns:cc="http://creativecommons.org/ns#"
   xmlns:rdf="http://www.w3.org/1999/02/22-rdf-syntax-ns#"
   xmlns:svg="http://www.w3.org/2000/svg"
   xmlns="http://www.w3.org/2000/svg"
   xmlns:sodipodi="http://sodipodi.sourceforge.net/DTD/sodipodi-0.dtd"
   xmlns:inkscape="http://www.inkscape.org/namespaces/inkscape"
   viewBox="0.0 0.0 348.0 348.0"
   fill="none"
   version="1.1"
   id="svg3729"
   sodipodi:docname="EquationsDiagram.svg"
   inkscape:version="0.92.4 (5da689c313, 2019-01-14)">
  <metadata
     id="metadata3735">
    <rdf:RDF>
      <cc:Work
         rdf:about="">
        <dc:format>image/svg+xml</dc:format>
        <dc:type
           rdf:resource="http://purl.org/dc/dcmitype/StillImage" />
      </cc:Work>
    </rdf:RDF>
  </metadata>
  <defs
     id="defs3733" />
  <sodipodi:namedview
     pagecolor="#ffffff"
     bordercolor="#666666"
     borderopacity="1"
     objecttolerance="10"
     gridtolerance="10"
     guidetolerance="10"
     inkscape:pageopacity="0"
     inkscape:pageshadow="2"
     inkscape:window-width="1920"
     inkscape:window-height="1027"
     id="namedview3731"
     showgrid="false"
     inkscape:zoom="2.4655172"
     inkscape:cx="222.99836"
     inkscape:cy="229.39143"
     inkscape:window-x="-8"
     inkscape:window-y="-8"
     inkscape:window-maximized="1"
     inkscape:current-layer="svg3729" />
  <path
     d="M5.079 5.776h336.913v337.67H5.08z"
     stroke-width="2"
     stroke="#000"
     id="path3725" />
  <path
     d="M282.734 40.554c0-8.376 6.966-15.165 15.56-15.165 4.126 0 8.084 1.597 11.001 4.441 2.918 2.844 4.558 6.702 4.558 10.724 0 8.376-6.966 15.165-15.56 15.165-8.593 0-15.559-6.79-15.559-15.165z"
     stroke-width="2"
     stroke="#000"
     id="path3727" />
  <rect
     style="fill:none;stroke:#000000;stroke-width:1.00111306"
     id="rect4546"
     width="180.08279"
     height="47.047836"
     x="36.504055"
     y="29.203354" />
  <text
     xml:space="preserve"
     style="font-style:normal;font-weight:normal;font-size:40px;line-height:1.25;font-family:sans-serif;letter-spacing:0px;word-spacing:0px;fill:#000000;fill-opacity:1;stroke:none"
     x="49.482517"
     y="72.195801"
     id="text4550"><tspan
       sodipodi:role="line"
       id="tspan4548"
       x="49.482517"
       y="108.68901" /></text>
  <text
     xml:space="preserve"
     style="font-style:normal;font-weight:normal;font-size:37.05857086px;line-height:1.25;font-family:sans-serif;letter-spacing:0px;word-spacing:0px;fill:#000000;fill-opacity:1;stroke:none;stroke-width:0.92646426"
     x="76.700737"
     y="61.693016"
     id="text4554"
     transform="scale(0.92775231,1.0778739)"><tspan
       sodipodi:role="line"
       id="tspan4552"
       x="76.700737"
       y="61.693016"
       style="stroke-width:0.92646426">12.3.54</tspan></text>
  <rect
     style="fill:none;stroke:#000000;stroke-width:1.24543428"
     id="rect4556"
     width="109.46691"
     height="68.95105"
     x="51.148476"
     y="106.26572" />
  <text
     xml:space="preserve"
     style="font-style:normal;font-weight:normal;font-size:23.21582603px;line-height:1.25;font-family:sans-serif;letter-spacing:0px;word-spacing:0px;fill:#000000;fill-opacity:1;stroke:none;stroke-width:0.58039558"
     x="76.273758"
     y="115.48853"
     id="text4560"
     transform="scale(0.7646877,1.3077234)"><tspan
       sodipodi:role="line"
       id="tspan4558"
       x="76.273758"
       y="115.48853"
       style="stroke-width:0.58039558">&lt;SYMBOL&gt;</tspan></text>
  <rect
     style="fill:none;stroke:#000000"
     id="rect4562"
     width="155.74825"
     height="64.083916"
     x="23.524475"
     y="204.41959" />
  <text
     xml:space="preserve"
     style="font-style:normal;font-weight:normal;font-size:32.48332977px;line-height:1.25;font-family:sans-serif;letter-spacing:0px;word-spacing:0px;fill:#000000;fill-opacity:1;stroke:none;stroke-width:0.81208318"
     x="44.473412"
     y="217.80804"
     id="text4566"
     transform="scale(0.87162444,1.1472831)"><tspan
       sodipodi:role="line"
       id="tspan4564"
       x="44.473412"
       y="217.80804"
       style="stroke-width:0.81208318">&lt;INPUT&gt;</tspan></text>
  <rect
     style="fill:none;stroke:#000000"
     id="rect4568"
     width="112.34965"
     height="31.23077"
     x="43.398602"
     y="287.97202" />
  <text
     xml:space="preserve"
     style="font-style:normal;font-weight:normal;font-size:25.98460197px;line-height:1.25;font-family:sans-serif;letter-spacing:0px;word-spacing:0px;fill:#000000;fill-opacity:1;stroke:none;stroke-width:0.64961505"
     x="60.095413"
     y="288.81644"
     id="text4572"
     transform="scale(0.9218595,1.084764)"><tspan
       sodipodi:role="line"
       id="tspan4570"
       x="60.095413"
       y="288.81644"
       style="stroke-width:0.64961505">SUBMIT</tspan></text>
  <rect
     style="fill:none;stroke:#000000;stroke-width:1.08530557"
     id="rect4574"
     width="32.447552"
     height="36.786354"
     x="196.30769"
     y="111.16895" />
  <rect
     style="fill:none;stroke:#000000;stroke-width:1.08530557"
     id="rect4574-3"
     width="32.447552"
     height="36.786354"
     x="240.51749"
     y="110.93007" />
  <rect
     style="fill:none;stroke:#000000;stroke-width:1.08530557"
     id="rect4574-7"
     width="32.447552"
     height="36.786354"
     x="285.94406"
     y="110.93007" />
  <rect
     style="fill:none;stroke:#000000;stroke-width:1.08530557"
     id="rect4574-2"
     width="32.447552"
     height="36.786354"
     x="196.1049"
     y="161.21274" />
  <rect
     style="fill:none;stroke:#000000;stroke-width:1.08530557"
     id="rect4574-3-0"
     width="32.447552"
     height="36.786354"
     x="240.3147"
     y="160.97385" />
  <rect
     style="fill:none;stroke:#000000;stroke-width:1.08530557"
     id="rect4574-7-4"
     width="32.447552"
     height="36.786354"
     x="285.74124"
     y="160.97385" />
  <rect
     style="fill:none;stroke:#000000;stroke-width:1.08530557"
     id="rect4574-5"
     width="32.447552"
     height="36.786354"
     x="196.51048"
     y="211.37595" />
  <rect
     style="fill:none;stroke:#000000;stroke-width:1.08530557"
     id="rect4574-3-2"
     width="32.447552"
     height="36.786354"
     x="240.72028"
     y="211.13707" />
  <rect
     style="fill:none;stroke:#000000;stroke-width:1.08530557"
     id="rect4574-7-1"
     width="32.447552"
     height="36.786354"
     x="286.14685"
     y="211.13707" />
  <rect
     style="fill:none;stroke:#000000;stroke-width:1.08530557"
     id="rect4574-5-1"
     width="32.447552"
     height="36.786354"
     x="218.20978"
     y="259.03101" />
  <rect
     style="fill:none;stroke:#000000;stroke-width:1.08530557"
     id="rect4574-5-1-1"
     width="32.447552"
     height="36.786354"
     x="264.04196"
     y="259.50873" />
  <text
     xml:space="preserve"
     style="font-style:normal;font-weight:normal;font-size:31.06585312px;line-height:1.25;font-family:sans-serif;letter-spacing:0px;word-spacing:0px;fill:#000000;fill-opacity:1;stroke:none;stroke-width:0.77664632"
     x="192.31738"
     y="147.67747"
     id="text4666"
     transform="scale(1.0553663,0.9475383)"><tspan
       sodipodi:role="line"
       id="tspan4664"
       x="192.31738"
       y="147.67747"
       style="stroke-width:0.77664632">1</tspan></text>
  <text
     xml:space="preserve"
     style="font-style:normal;font-weight:normal;font-size:31.06585312px;line-height:1.25;font-family:sans-serif;letter-spacing:0px;word-spacing:0px;fill:#000000;fill-opacity:1;stroke:none;stroke-width:0.77664632"
     x="233.71082"
     y="147.8793"
     id="text4666-1"
     transform="scale(1.0553663,0.9475383)"><tspan
       sodipodi:role="line"
       id="tspan4664-6"
       x="233.71082"
       y="147.8793"
       style="stroke-width:0.77664632">2</tspan></text>
  <text
     xml:space="preserve"
     style="font-style:normal;font-weight:normal;font-size:31.06585312px;line-height:1.25;font-family:sans-serif;letter-spacing:0px;word-spacing:0px;fill:#000000;fill-opacity:1;stroke:none;stroke-width:0.77664632"
     x="277.13855"
     y="147.45126"
     id="text4666-0"
     transform="scale(1.0553663,0.9475383)"><tspan
       sodipodi:role="line"
       id="tspan4664-0"
       x="277.13855"
       y="147.45126"
       style="stroke-width:0.77664632">3</tspan></text>
  <text
     xml:space="preserve"
     style="font-style:normal;font-weight:normal;font-size:31.06585312px;line-height:1.25;font-family:sans-serif;letter-spacing:0px;word-spacing:0px;fill:#000000;fill-opacity:1;stroke:none;stroke-width:0.77664632"
     x="295.97003"
     y="180.41116"
     id="text4666-2"
     transform="scale(1.0553663,0.9475383)"><tspan
       sodipodi:role="line"
       id="tspan4664-8"
       x="295.97003"
       y="180.41116"
       style="stroke-width:0.77664632">4</tspan></text>
  <text
     xml:space="preserve"
     style="font-style:normal;font-weight:normal;font-size:31.06585312px;line-height:1.25;font-family:sans-serif;letter-spacing:0px;word-spacing:0px;fill:#000000;fill-opacity:1;stroke:none;stroke-width:0.77664632"
     x="233.32649"
     y="200.9576"
     id="text4666-8"
     transform="scale(1.0553663,0.9475383)"><tspan
       sodipodi:role="line"
       id="tspan4664-9"
       x="233.32649"
       y="200.9576"
       style="stroke-width:0.77664632">5</tspan></text>
  <text
     xml:space="preserve"
     style="font-style:normal;font-weight:normal;font-size:31.06585312px;line-height:1.25;font-family:sans-serif;letter-spacing:0px;word-spacing:0px;fill:#000000;fill-opacity:1;stroke:none;stroke-width:0.77664632"
     x="276.75421"
     y="200.52954"
     id="text4666-7"
     transform="scale(1.0553663,0.9475383)"><tspan
       sodipodi:role="line"
       id="tspan4664-5"
       x="276.75421"
       y="200.52954"
       style="stroke-width:0.77664632">6</tspan></text>
  <text
     xml:space="preserve"
     style="font-style:normal;font-weight:normal;font-size:31.06585312px;line-height:1.25;font-family:sans-serif;letter-spacing:0px;word-spacing:0px;fill:#000000;fill-opacity:1;stroke:none;stroke-width:0.77664632"
     x="191.82034"
     y="254.03587"
     id="text4666-29"
     transform="scale(1.0553663,0.9475383)"><tspan
       sodipodi:role="line"
       id="tspan4664-7"
       x="191.82034"
       y="254.03587"
       style="stroke-width:0.77664632">7</tspan></text>
  <text
     xml:space="preserve"
     style="font-style:normal;font-weight:normal;font-size:31.06585312px;line-height:1.25;font-family:sans-serif;letter-spacing:0px;word-spacing:0px;fill:#000000;fill-opacity:1;stroke:none;stroke-width:0.77664632"
     x="234.47945"
     y="253.60783"
     id="text4666-29-8"
     transform="scale(1.0553663,0.9475383)"><tspan
       sodipodi:role="line"
       id="tspan4664-7-1"
       x="234.47945"
       y="253.60783"
       style="stroke-width:0.77664632">8</tspan></text>
  <text
     xml:space="preserve"
     style="font-style:normal;font-weight:normal;font-size:31.06585312px;line-height:1.25;font-family:sans-serif;letter-spacing:0px;word-spacing:0px;fill:#000000;fill-opacity:1;stroke:none;stroke-width:0.77664632"
     x="276.75421"
     y="253.60782"
     id="text4666-29-86"
     transform="scale(1.0553663,0.9475383)"><tspan
       sodipodi:role="line"
       id="tspan4664-7-6"
       x="276.75421"
       y="253.60782"
       style="stroke-width:0.77664632">9</tspan></text>
  <text
     xml:space="preserve"
     style="font-style:normal;font-weight:normal;font-size:31.06585312px;line-height:1.25;font-family:sans-serif;letter-spacing:0px;word-spacing:0px;fill:#000000;fill-opacity:1;stroke:none;stroke-width:0.77664632"
     x="212.57341"
     y="303.68976"
     id="text4666-29-9"
     transform="scale(1.0553663,0.9475383)"><tspan
       sodipodi:role="line"
       id="tspan4664-7-4"
       x="212.57341"
       y="303.68976"
       style="stroke-width:0.77664632">0</tspan></text>
  <text
     xml:space="preserve"
     style="font-style:normal;font-weight:normal;font-size:31.06585312px;line-height:1.25;font-family:sans-serif;letter-spacing:0px;word-spacing:0px;fill:#000000;fill-opacity:1;stroke:none;stroke-width:0.77664632"
     x="254.46388"
     y="304.54587"
     id="text4666-29-5"
     transform="scale(1.0553663,0.9475383)"><tspan
       sodipodi:role="line"
       id="tspan4664-7-48"
       x="254.46388"
       y="304.54587"
       style="stroke-width:0.77664632">C</tspan></text>
  <rect
     style="fill:#ffffff;stroke:none"
     id="rect55"
     width="386.93707"
     height="279.45456"
     x="-16.629372"
     y="88.825172" />
  <rect
     style="fill:#ffffff;stroke:none"
     id="rect57"
     width="152.0979"
     height="131.00699"
     x="229.16084"
     y="-13.790215" />
  <path
     style="fill:none;stroke:#000000;stroke-width:1px;stroke-linecap:butt;stroke-linejoin:miter;stroke-opacity:1"
     d="m 67.734267,36.909086 c 0,-1.216784 0,-2.433567 0,-3.65035 0,-0.270396 -0.06558,-0.548866 0,-0.811189 0.146643,-0.586572 0.692612,-1.029494 0.811189,-1.622377 0.07954,-0.397719 -0.07954,-0.819066 0,-1.216784 0.06019,-0.300924 1.02806,-2.05612 1.216783,-2.433566 0.135198,-0.270396 0.293318,-0.530499 0.405594,-0.811189 0.158783,-0.396955 0.18563,-0.850176 0.405595,-1.216783 0.196742,-0.327904 0.58175,-0.505271 0.811189,-0.811189 0.181387,-0.24185 0.224207,-0.569339 0.405594,-0.811189 0.229439,-0.305918 0.58175,-0.50527 0.811189,-0.811189 0.181387,-0.24185 0.237902,-0.55965 0.405594,-0.811189 0.318175,-0.477261 0.872625,-0.757905 1.216783,-1.216783 0.181388,-0.24185 0.237902,-0.55965 0.405595,-0.811189 0.106058,-0.159087 0.270396,-0.270396 0.405594,-0.405594 0.270397,-0.270396 0.493015,-0.599073 0.811189,-0.811189 0.112492,-0.07499 0.293103,0.075 0.405595,0 0.299971,-0.199981 1.288726,-1.455552 1.622377,-1.622378 0.120925,-0.06046 0.309995,0.0956 0.405595,0 0.0956,-0.0956 -0.0956,-0.309994 0,-0.405594 0.0956,-0.0956 0.309994,0.0956 0.405594,0 0.0956,-0.0956 -0.0956,-0.309995 0,-0.405594 0.0956,-0.0956 0.28467,0.06046 0.405594,0 0.359494,-0.179747 0.847565,-0.970638 1.216784,-1.216784 0.251539,-0.167692 0.55965,-0.237901 0.811188,-0.405594 0.742131,-0.494754 0.04047,-0.517109 1.216784,-0.811189 0.262323,-0.06558 0.554668,0.08551 0.811189,0 0.181387,-0.06046 0.246507,-0.299536 0.405594,-0.405594 -0.04619,-0.768369 0.946387,-0.270397 1.216783,-0.405595 0.171014,-0.08551 0.234581,-0.320087 0.405595,-0.405594 0.382398,-0.191199 0.819827,-0.246812 1.216783,-0.405594 0.28069,-0.112276 0.517903,-0.332273 0.811189,-0.405595 0.262323,-0.06558 0.548866,0.06558 0.811188,0 0.586572,-0.146643 1.060998,-0.586637 1.622378,-0.811189 2.382019,-0.9528073 0.04885,-0.0081 2.433567,-0.405594 1.171123,-0.195187 2.080642,-0.9839608 3.244755,-1.2167834 0.530291,-0.1060581 1.081585,0 1.622378,0 1.081585,0 2.16317,0 3.244755,0 0.94639,0 1.89277,0 2.83916,0 0.2704,0 0.54079,0 0.81119,0 0.1352,0 0.27443,-0.03279 0.40559,0 1.00239,0.250597 1.18879,0.3915942 2.02798,0.8111884 0.27039,0.135199 0.52439,0.309995 0.81118,0.405595 0.12827,0.04275 0.31,-0.0956 0.4056,0 0.83919,0.839189 -1.28239,-0.0328 0.40559,0.811189 0.12093,0.06046 0.28467,-0.06046 0.4056,0 0.10769,0.05384 1.16294,1.109093 1.21678,1.216783 0.0605,0.120925 -0.0956,0.309995 0,0.405594 0.0956,0.0956 0.31,-0.0956 0.4056,0 0.0956,0.0956 -0.0605,0.28467 0,0.405595 0.0855,0.171013 0.27039,0.270396 0.40559,0.405594 0.51583,0.515828 0.48379,0.398281 0.81119,1.216783 1.63313,4.082824 -0.31669,-0.861156 0.40559,2.027972 0.0733,0.293286 0.34631,0.514748 0.4056,0.811189 0.0795,0.397718 -0.0795,0.819065 0,1.216784 0.0593,0.296441 0.27039,0.540792 0.40559,0.811188 0.1352,0.405595 0.33531,0.795067 0.4056,1.216784 0.0667,0.400075 -0.0667,0.816707 0,1.216783 0.1253,0.751791 0.48019,1.365981 0.81119,2.027972 0.13519,0.270396 0.30999,0.52439 0.40559,0.811189 0.0874,0.2623 0,1.585103 0,2.027972 0,2.027972 0,4.055944 0,6.083916 0,0.71391 -0.33547,0.811189 0.40559,0.811189"
     id="path59"
     inkscape:connector-curvature="0" />
  <path
     style="fill:none;stroke:#000000;stroke-width:1px;stroke-linecap:butt;stroke-linejoin:miter;stroke-opacity:1"
     d="m 116.81119,70.979016 c 0.0185,0.037 0.66137,1.750263 1.21678,2.027972 0.12093,0.06046 0.31,-0.0956 0.4056,0 0.0956,0.0956 -0.0605,0.28467 0,0.405595 0.0855,0.171013 0.32009,0.234581 0.40559,0.405594 0.0605,0.120925 -0.0956,0.309995 0,0.405595 0.0956,0.0956 0.31,-0.0956 0.4056,0 0.0956,0.0956 -0.0956,0.309995 0,0.405594 0.83919,0.839189 -0.0328,-1.282392 0.81119,0.405594 0.0605,0.120925 -0.0956,0.309995 0,0.405595 0.0829,0.08292 1.05596,-0.08041 1.21678,0 0.17101,0.08551 0.23458,0.320087 0.40559,0.405594 0.12344,0.06172 1.03412,0 1.21679,0 0.1352,0 0.30999,0.0956 0.40559,0 0.0956,-0.0956 -0.0956,-0.309995 0,-0.405594 0.0956,-0.0956 0.28467,0.06046 0.4056,0 0.17101,-0.08551 0.23458,-0.320088 0.40559,-0.405595 0.12093,-0.06046 0.40559,-0.135198 0.40559,0 0,0.135199 -0.50119,0.0956 -0.40559,0 0.21377,-0.213767 0.59742,-0.191827 0.81119,-0.405594 0.1912,-0.191199 -0.1912,-0.61999 0,-0.811189 0.0956,-0.0956 0.30999,0.0956 0.40559,0 0.1912,-0.191199 -0.1912,-0.61999 0,-0.811189 0.0956,-0.0956 0.31,0.0956 0.4056,0 0.013,-0.01304 0,-1.118415 0,-1.216783 0,-0.135198 0.0956,-0.309995 0,-0.405594 -0.0956,-0.0956 -0.31,0.0956 -0.4056,0 -0.0163,-0.01632 0,-1.473429 0,-1.622378"
     id="path61"
     inkscape:connector-curvature="0" />
  <path
     style="fill:none;stroke:#000000;stroke-width:1px;stroke-linecap:butt;stroke-linejoin:miter;stroke-opacity:1"
     d="m 122.48951,76.251744 c 3.174,-0.472193 0.29637,1.513153 0.81119,2.027972 0.0956,0.0956 0.31,-0.0956 0.4056,0 0.19119,0.191199 -0.1912,0.61999 0,0.811189 0.0956,0.0956 0.30999,-0.0956 0.40559,0 0.1912,0.191199 -0.1912,0.619989 0,0.811188 0.1912,0.191199 0.61999,-0.191199 0.81119,0 0.1912,0.191199 -0.1912,0.61999 0,0.811189 0.0956,0.0956 0.34513,-0.120925 0.40559,0 0.12093,0.24185 -0.0855,0.554669 0,0.811189 0.12093,0.362775 0.64018,0.469162 0.81119,0.811189 0.0605,0.120925 -0.0956,0.309995 0,0.405594 0.1912,0.191199 0.61999,-0.191199 0.81119,0 0.0956,0.0956 -0.0956,0.309995 0,0.405595 0.2028,0.202797 1.01399,-0.202798 1.21678,0 0.1912,0.191199 -0.19119,0.619989 0,0.811189 0.0956,0.0956 0.28467,-0.06046 0.4056,0 0.17101,0.08551 0.23458,0.320087 0.40559,0.405594 0.12093,0.06046 0.28467,-0.06046 0.4056,0 0.17101,0.08551 0.23458,0.320088 0.40559,0.405594 0.12093,0.06046 0.31,-0.0956 0.4056,0 0.0956,0.0956 -0.0956,0.309995 0,0.405595 0.0956,0.0956 0.27039,0 0.40559,0 0.1352,0 0.2704,0 0.4056,0 0.13519,0 0.54079,0 0.40559,0 -2.44793,0 1.08929,0.06375 1.21678,0 0.17102,-0.08551 0.23458,-0.320088 0.4056,-0.405595 0.22003,-0.110015 1.5114,0.11098 1.62237,0 0.0956,-0.0956 -0.0956,-0.309995 0,-0.405594 0.0956,-0.0956 0.31,0.0956 0.4056,0 0.0956,-0.0956 -0.1352,-0.405594 0,-0.405594 0.1352,0 0,0.270396 0,0.405594"
     id="path63"
     inkscape:connector-curvature="0" />
  <text
     xml:space="preserve"
     style="font-style:normal;font-weight:normal;font-size:11.97054386px;line-height:1.25;font-family:sans-serif;letter-spacing:0px;word-spacing:0px;fill:#000000;fill-opacity:1;stroke:none;stroke-width:0.2992636"
     x="168.68051"
     y="71.709328"
     id="text71"
     transform="scale(0.80795547,1.237692)"><tspan
       sodipodi:role="line"
       id="tspan69"
       x="168.68051"
       y="71.709328"
       style="stroke-width:0.2992636">shows change of values</tspan></text>
  <text
     xml:space="preserve"
     style="font-style:normal;font-variant:normal;font-weight:normal;font-stretch:normal;font-size:42.66666794px;line-height:1.25;font-family:Greek;-inkscape-font-specification:Greek;letter-spacing:0px;word-spacing:0px;baseline-shift:baseline;fill:#000000;fill-opacity:1;stroke:none"
     x="90.447556"
     y="156.96503"
     id="text64"><tspan
       sodipodi:role="line"
       id="tspan62"
       x="90.447556"
       y="156.96503"
       style="font-size:42.66666794px">a = (w<tspan
   style="font-size:42.66666794px"
   id="tspan66"><tspan
   style="font-size:64.99999762%;baseline-shift:sub"
   id="tspan72">o</tspan> - w)</tspan></tspan></text>
  <text
     xml:space="preserve"
     style="font-style:normal;font-variant:normal;font-weight:normal;font-stretch:normal;font-size:40px;line-height:1.25;font-family:serif;-inkscape-font-specification:serif;letter-spacing:0px;word-spacing:0px;fill:#000000;fill-opacity:1;stroke:none"
     x="314.33566"
     y="160.61539"
     id="text70"><tspan
       sodipodi:role="line"
       id="tspan68"
       x="314.33566"
       y="160.61539">/t</tspan></text>
  <path
     style="fill:none;stroke:#000000;stroke-width:1px;stroke-linecap:butt;stroke-linejoin:miter;stroke-opacity:1"
     d="m 128.16783,32.853142 c 1.80787,-0.451967 1.22822,-0.01143 2.02798,-0.811189 0.13519,-0.135198 0.23458,-0.320088 0.40559,-0.405595 0.12093,-0.06046 0.31,0.0956 0.4056,0 0.0956,-0.0956 -0.0956,-0.309995 0,-0.405594 0.19119,-0.191199 0.61998,0.191199 0.81118,0 0.0956,-0.0956 -0.0956,-0.309995 0,-0.405594 0.83919,-0.83919 -0.0328,1.282392 0.81119,-0.405595 0.0605,-0.120925 -0.0956,-0.309995 0,-0.405594 0.1912,-0.191199 0.56934,0.120925 0.81119,0 0.17102,-0.08551 0.23458,-0.320088 0.4056,-0.405595 0.24185,-0.120925 0.61999,0.191199 0.81118,0 0.0956,-0.0956 -0.0956,-0.309995 0,-0.405594 0.0184,-0.01838 1.83674,0 2.02798,0 0.2821,0 1.88129,-0.07334 2.02797,0 0.17101,0.08551 0.23458,0.320087 0.40559,0.405594 0.25493,0.127463 1.36746,-0.127462 1.62238,0 0.34203,0.171014 0.46916,0.640175 0.81119,0.811189 0.32448,0.162238 0.89231,-0.162238 1.21678,0 0.12093,0.06046 -0.0956,0.309995 0,0.405595 0.0956,0.0956 0.28467,-0.06046 0.4056,0 0.17101,0.08551 0.23458,0.320087 0.40559,0.405594 0.24185,0.120925 0.61999,-0.191199 0.81119,0 0.0956,0.0956 -0.0956,0.309995 0,0.405594 0.0956,0.0956 0.31,-0.0956 0.4056,0 0.0956,0.0956 -0.0605,0.28467 0,0.405595 0.0855,0.171013 0.27039,0.270396 0.40559,0.405594 0.1352,0.135198 0.23458,0.320088 0.40559,0.405595 0.12093,0.06046 0.31,-0.0956 0.4056,0 0.0956,0.0956 -0.0605,0.284669 0,0.405594 0.0855,0.171014 0.32009,0.234581 0.40559,0.405594 0.0605,0.120925 -0.0956,0.309995 0,0.405595 0.0956,0.0956 0.31,-0.0956 0.4056,0 0.0956,0.0956 -0.0605,0.284669 0,0.405594 0.24335,0.486714 0.97342,0.73007 1.21678,1.216783 0.0605,0.120925 0,0.270397 0,0.405595 0,0.135198 0,0.270396 0,0.405594"
     id="path76"
     inkscape:connector-curvature="0" />
  <path
     style="fill:none;stroke:#000000;stroke-width:1px;stroke-linecap:butt;stroke-linejoin:miter;stroke-opacity:1"
     d="m 126.95105,83.552443 c 0.1352,-0.540792 0.2704,-1.081585 0.4056,-1.622378 0.13519,0 0.30999,0.0956 0.40559,0 0.0956,-0.0956 -0.0605,-0.284669 0,-0.405594 0.17101,-0.342027 0.64018,-0.469162 0.81119,-0.811189 0.0605,-0.120925 -0.0956,-0.309995 0,-0.405594 0.0956,-0.0956 0.30999,0.0956 0.40559,0 0.0956,-0.0956 -0.0956,-0.309995 0,-0.405595 0.0956,-0.0956 0.31,0.0956 0.4056,0 0.1912,-0.191199 -0.1912,-0.619989 0,-0.811188 0.0956,-0.0956 0.28467,0.06046 0.40559,0 0.17102,-0.08551 0.23458,-0.320088 0.4056,-0.405595 0.12092,-0.06046 0.30999,0.0956 0.40559,0 0.0956,-0.0956 -0.0956,-0.309995 0,-0.405594 0.0956,-0.0956 0.31,0.0956 0.4056,0 0.83918,-0.83919 -1.2824,0.0328 0.40559,-0.811189 0.12092,-0.06046 0.30999,0.0956 0.40559,0 0.0956,-0.0956 -0.0956,-0.309995 0,-0.405594 0.1912,-0.1912 0.61999,0.191199 0.81119,0 0.0956,-0.0956 -0.0956,-0.309995 0,-0.405595 0.0956,-0.0956 0.31,0.0956 0.4056,0 0.0956,-0.0956 -0.0605,-0.284669 0,-0.405594 0.84399,-1.687987 -0.028,0.433595 0.81119,-0.405595 0.0956,-0.0956 -0.0956,-0.309995 0,-0.405594 0.0956,-0.0956 0.28467,0.06046 0.40559,0 0.17101,-0.08551 0.23458,-0.320088 0.40559,-0.405595 0.12093,-0.06046 0.28467,0.06046 0.4056,0 0.34203,-0.171013 0.46916,-0.640175 0.81119,-0.811188 0.24185,-0.120925 0.56934,0.120925 0.81119,0 0.17101,-0.08551 0.23458,-0.320088 0.40559,-0.405595 0.25728,-0.128637 1.76449,0.131742 2.02797,0 0.17102,-0.08551 0.23458,-0.320087 0.4056,-0.405594 0.10665,-0.05332 1.41028,0 1.62238,0 1.08158,0 2.16317,0 3.24475,0 0.21209,0 1.51573,0.05332 1.62238,0 0.17101,-0.08551 0.23458,-0.320088 0.40559,-0.405595 0.24185,-0.120924 0.61999,0.191199 0.81119,0 0.0956,-0.0956 -0.0956,-0.309995 0,-0.405594 0.0956,-0.0956 0.2704,0 0.4056,0 0.2821,0 1.88129,0.07334 2.02797,0 0.17101,-0.08551 0.23458,-0.320088 0.40559,-0.405594 0.10487,-0.05243 2.14608,0 2.43357,0 0.1352,0 0.28467,0.06046 0.40559,0 0.17102,-0.08551 0.23458,-0.320088 0.4056,-0.405595 0.25587,-0.127938 1.77209,0.127939 2.02797,0 0.17101,-0.08551 0.24651,-0.299536 0.40559,-0.405594 0.25154,-0.167693 0.55965,-0.237902 0.81119,-0.405595 0.15909,-0.106058 0.23458,-0.320087 0.4056,-0.405594 0.12092,-0.06046 0.28467,0.06046 0.40559,0 0.17102,-0.08551 0.23458,-0.320088 0.4056,-0.405594 0.12092,-0.06046 0.30999,0.0956 0.40559,0 0.0956,-0.0956 -0.0956,-0.309995 0,-0.405595 0.1912,-0.191199 0.56934,0.120925 0.81119,0 0.17101,-0.08551 0.2704,-0.270396 0.40559,-0.405594 0.1352,-0.135198 0.32009,-0.234581 0.4056,-0.405595 0.0605,-0.120925 0,-0.270396 0,-0.405594"
     id="path78"
     inkscape:connector-curvature="0" />
  <path
     style="fill:none;stroke:#000000;stroke-width:1px;stroke-linecap:butt;stroke-linejoin:miter;stroke-opacity:1"
     d="m 154.53147,71.384611 c 0.89021,-4.085083 -1.47053,-0.659347 -2.02797,-1.216783 -0.0956,-0.0956 0.0956,-0.309995 0,-0.405595 -0.0956,-0.0956 -0.28467,0.06046 -0.4056,0 -0.17101,-0.08551 -0.23458,-0.320088 -0.40559,-0.405594 -0.12092,-0.06046 -0.28467,0.06046 -0.40559,0 -1.68799,-0.843994 0.43359,0.028 -0.4056,-0.811189 -0.0956,-0.0956 -0.40559,0.135198 -0.40559,0 0,-0.135198 0.27039,0 0.40559,0"
     id="path80"
     inkscape:connector-curvature="0" />
  <path
     style="fill:none;stroke:#000000;stroke-width:1px;stroke-linecap:butt;stroke-linejoin:miter;stroke-opacity:1"
     d="m 161.42658,35.692302 c 0.54079,-0.405594 1.03545,-0.881397 1.62237,-1.216783 1.90532,-1.088753 0.51602,-0.02761 2.02798,-0.405594 0.7341,0.244463 0.75433,-0.657039 1.21678,-0.811189 0.25652,-0.08551 0.54079,0 0.81119,0 0.40559,-0.135198 0.81983,-0.246812 1.21678,-0.405594 0.28069,-0.112276 0.55965,-0.237902 0.81119,-0.405595 0.15909,-0.106058 0.22421,-0.345132 0.40559,-0.405594 0.25652,-0.08551 0.55467,0.08551 0.81119,0 0.18139,-0.06046 0.23458,-0.320088 0.4056,-0.405595 0.12092,-0.06046 0.27733,0.04275 0.40559,0 1.883,-0.941496 -0.23346,-0.03443 1.62238,-0.405594 0.41923,-0.08385 0.79507,-0.335308 1.21678,-0.405594 0.40008,-0.06668 0.81119,0 1.21679,0 0.40559,0 0.81118,0 1.21678,0 1.75758,0 3.51515,0 5.27273,0 1.48718,0 2.97436,0 4.46154,0 0.27039,0 0.54079,0 0.81118,0 0.2704,0 0.55467,-0.08551 0.81119,0 0.18139,0.06046 0.23458,0.320087 0.4056,0.405594 0.10664,0.05332 1.41028,0 1.62238,0 0.67599,0 1.35198,0 2.02797,0 0.40559,0 0.832,-0.12826 1.21678,0 0.18139,0.06046 0.23458,0.320088 0.40559,0.405594 0.12093,0.06046 0.31,-0.0956 0.4056,0 0.0956,0.0956 -0.0956,0.309995 0,0.405595 0.0956,0.0956 0.2704,0 0.40559,0 0.38201,0 1.79725,-0.07691 2.02798,0 0.18138,0.06046 0.23458,0.320087 0.40559,0.405594 0.16081,0.08041 1.13386,-0.08292 1.21678,0 0.0956,0.0956 -0.0956,0.309995 0,0.405595 0.0956,0.0956 0.28467,-0.06046 0.4056,0 0.17101,0.08551 0.23458,0.320087 0.40559,0.405594 0.24185,0.120925 0.61999,-0.191199 0.81119,0 0.0956,0.0956 -0.0956,0.309995 0,0.405594 0.0956,0.0956 0.28467,-0.06046 0.4056,0 0.34202,0.171014 0.46916,0.640176 0.81118,0.811189 0.12093,0.06046 0.31,-0.0956 0.4056,0 0.0956,0.0956 -0.0956,0.309995 0,0.405595 0.0956,0.0956 0.28467,-0.06046 0.40559,0 1.68799,0.843993 -0.43359,-0.028 0.4056,0.811188 0.83919,0.83919 -0.0328,-1.282392 0.81119,0.405595 0,1.081585 -0.1352,-0.135198 0.40559,0.405594 0.0956,0.0956 -0.0956,0.309995 0,0.405595 0.0956,0.0956 0.31,-0.0956 0.4056,0 0.0956,0.0956 -0.0956,0.309995 0,0.405594 0.0956,0.0956 0.30999,-0.0956 0.40559,0 0.0956,0.0956 -0.0956,0.309995 0,0.405595 0.0956,0.0956 0.28467,-0.06046 0.40559,0 0.10769,0.05384 1.16294,1.109093 1.21679,1.216783 0.0605,0.120925 -0.0956,0.309995 0,0.405594 0.0956,0.0956 0.28467,-0.06046 0.40559,0 1.68799,0.843994 -0.43359,-0.028 0.4056,0.811189 0.54079,0.540793 0.40559,-0.675991 0.40559,0.405594"
     id="path84"
     inkscape:connector-curvature="0" />
  <path
     style="fill:none;stroke:#000000;stroke-width:1px;stroke-linecap:butt;stroke-linejoin:miter;stroke-opacity:1"
     d="m 97.748253,8.9230712 c 2.433567,0 4.867137,0 7.300697,0 0.4056,0 0.81119,0 1.21679,0 0.40559,0 0.8167,-0.066679 1.21678,0 0.42172,0.070286 0.79355,0.345132 1.21678,0.4055944 0.53536,0.07648 1.08576,-0.067077 1.62238,0 0.55313,0.069141 1.08159,0.2703963 1.62238,0.4055945 0.81119,0.1351981 1.61456,0.3311399 2.43356,0.4055939 0.67322,0.0612 1.35199,0 2.02798,0 0.81119,0.135199 1.61527,0.323765 2.43356,0.405595 0.53811,0.05381 1.08159,0 1.62238,0 2.02797,0 4.05594,0 6.08392,0 2.16317,0 4.32634,0 6.48951,0 1.08158,0 2.16978,0.119441 3.24475,0 0.55403,-0.06156 1.06835,-0.344036 1.62238,-0.405595 0.67186,-0.07465 1.35198,0 2.02797,0 0.81119,0 1.62238,0 2.43357,0 2.70396,0 5.40792,0 8.11189,0 1.89277,0 3.78554,0 5.67832,0 0.61515,0 2.70019,-0.09076 3.24475,0 0.42172,0.07029 0.79756,0.321749 1.21679,0.405595 0.26514,0.05303 0.55467,-0.08551 0.81119,0 0.18138,0.06046 0.2242,0.345132 0.40559,0.405594 0.25652,0.08551 0.54887,-0.06558 0.81119,0 0.29329,0.07332 0.5179,0.332273 0.81119,0.405595 0.26232,0.06558 0.54079,0 0.81119,0 0.261,0 2.56467,-0.06862 2.83916,0 0.29328,0.07332 0.51475,0.346306 0.81119,0.405594 0.39771,0.07954 0.8167,-0.06668 1.21678,0 0.42172,0.07029 0.79507,0.335308 1.21678,0.405595 0.40008,0.06668 0.81671,-0.06668 1.21679,0 0.42171,0.07029 0.79506,0.335308 1.21678,0.405594 0.40008,0.06668 0.81119,0 1.21678,0 0.4056,0 0.81119,0 1.21679,0 1.75757,0 3.51515,0 5.27272,0 0.4056,0 0.81119,0 1.21679,0 0.40559,0 0.8167,-0.06668 1.21678,0 0.42172,0.07029 0.79507,0.335308 1.21678,0.405594 0.40008,0.06668 0.81671,-0.06668 1.21679,0 0.42171,0.07029 0.79506,0.335309 1.21678,0.405595 0.40008,0.06668 0.81671,-0.06668 1.21678,0 0.42172,0.07029 0.79507,0.335308 1.21679,0.405594 1.10084,0.183474 2.5495,-0.183474 3.65035,0 0.42171,0.07029 0.79506,0.335308 1.21678,0.405595 0.66679,0.111132 1.37216,-0.163952 2.02797,0 0.29329,0.07332 0.54079,0.270396 0.81119,0.405594 0.40559,0.135198 0.79755,0.321748 1.21678,0.405594 0.26515,0.05303 0.5408,0 0.81119,0 0.4056,0 0.81119,0 1.21679,0 0.40559,0 0.81526,-0.05736 1.21678,0 1.77022,0.25289 1.29827,0.425966 2.83916,0.811189 3.34552,0.83638 0.73579,-0.02154 3.65035,0.811189 0.41108,0.117453 0.79507,0.335308 1.21678,0.405594 0.40008,0.06668 0.81671,-0.06668 1.21679,0 0.42171,0.07029 0.79506,0.335309 1.21678,0.405595 0.40007,0.06668 0.81671,-0.06668 1.21678,0 3.56038,0.593396 -0.61999,0.149198 2.02797,0.811189 0.52465,0.131161 1.09774,-0.131162 1.62238,0 0.29329,0.07332 0.5305,0.293318 0.81119,0.405594 0.39696,0.158782 0.81119,0.270396 1.21678,0.405595 0.4056,0.135198 0.79355,0.345132 1.21679,0.405594 0.53535,0.07648 1.08702,-0.07648 1.62237,0 0.42324,0.06046 0.8057,0.288142 1.21679,0.405594 2.19822,0.628063 1.40001,0.280003 4.05594,0.811189 0.54661,0.109322 1.08639,0.252455 1.62238,0.405595 0.41108,0.117452 0.79507,0.335308 1.21678,0.405594 0.40008,0.06668 0.81671,-0.06668 1.21679,0 0.42171,0.07029 0.79755,0.321748 1.21678,0.405594 0.26514,0.05303 0.54604,-0.05303 0.81119,0 0.41923,0.08385 0.79506,0.335309 1.21678,0.405595 0.54941,0.09157 2.16754,0 2.83916,0 0.2704,0 0.54605,-0.05303 0.81119,0 0.41923,0.08385 0.79755,0.321748 1.21678,0.405594 0.26515,0.05303 0.5408,0 0.81119,0 0.4056,0 0.81119,0 1.21679,0 1.75757,0 3.51515,0 5.27272,0 0.10594,0 2.22966,-0.06797 2.43357,0 0.2868,0.0956 0.52439,0.309995 0.81119,0.405595 0.12826,0.04275 0.27443,-0.03279 0.40559,0 0.41477,0.103692 0.79756,0.321748 1.21679,0.405594 0.26514,0.05303 0.54886,-0.06558 0.81119,0 0.29328,0.07332 0.5179,0.332273 0.81118,0.405594 0.52465,0.131162 1.09209,-0.106058 1.62238,0 0.81449,-0.09308 1.32165,0.634608 2.02797,0.811189 0.26233,0.06558 0.54887,-0.06558 0.81119,0 0.58657,0.146643 1.061,0.586637 1.62238,0.811189 4.08282,1.63313 -0.86116,-0.316687 2.02797,0.405595 0.63507,0.158766 1.83259,1.096587 2.43357,1.216783 0.39772,0.07954 0.81906,-0.07954 1.21678,0 0.29644,0.05929 0.5305,0.293318 0.81119,0.405594 0.39696,0.158782 0.81983,0.246812 1.21678,0.405595 0.83917,0.335664 1.59441,0.881119 2.43357,1.216783 4.08282,1.633129 -0.86116,-0.316688 2.02797,0.405594 0.58657,0.146643 1.0295,0.692612 1.62238,0.811189 0.39772,0.07954 0.832,-0.12826 1.21678,0 0.46245,0.15415 0.79879,0.560391 1.21679,0.811189 0.51846,0.311077 1.10391,0.500112 1.62237,0.811189 0.418,0.250798 0.78079,0.593188 1.21679,0.811189 0.76479,0.382398 1.66877,0.42879 2.43356,0.811188 1.50421,0.752105 0.89622,0.679247 2.02798,1.622378 0.44237,1.123246 1.65362,1.037421 2.43356,1.622378 0.61184,0.458877 0.96657,1.228893 1.62238,1.622377 0.36661,0.219965 0.88294,0.138516 1.21678,0.405595 0.38065,0.304516 0.4665,0.872094 0.81119,1.216783 0.21377,0.213767 0.59742,0.191827 0.81119,0.405594 0.34469,0.344689 0.4665,0.872095 0.81119,1.216784 0.21377,0.213767 0.56934,0.224207 0.81119,0.405594 0.30592,0.229439 0.54079,0.540793 0.81119,0.811189 0.40559,0.405594 0.81119,0.811189 1.21678,1.216783 0.54079,0.540793 1.14461,1.025172 1.62238,1.622378 0.30452,0.380645 0.4665,0.872094 0.81119,1.216783 0.34469,0.344689 0.87209,0.4665 1.21678,0.811189 0.34469,0.344689 0.49912,0.842303 0.81119,1.216783 0.36721,0.44065 0.81119,0.811189 1.21678,1.216783 0.54085,0.540845 1.08154,1.081533 1.62238,1.622378 0.23086,0.230857 2.03174,2.132197 2.43357,2.433566 0.24185,0.181388 0.59742,0.191828 0.81119,0.405595 1.20783,1.207829 -0.60662,0.528341 1.21678,1.622377 0.36661,0.219965 0.88293,0.138516 1.21678,0.405595 1.65795,1.326361 -0.0314,1.035731 1.62238,2.027972 0.36661,0.219964 0.85018,0.18563 1.21678,0.405594 0.32791,0.196743 0.5408,0.540793 0.81119,0.811189 0.1352,0.135198 0.23458,0.320088 0.4056,0.405595 0.12092,0.06046 0.30999,-0.0956 0.40559,0 0.0956,0.0956 -0.0605,0.284669 0,0.405594 0.0855,0.171014 0.2704,0.270396 0.4056,0.405594 0.13519,0.135199 0.2465,0.299537 0.40559,0.405595 0.25154,0.167692 0.54079,0.270396 0.81119,0.405594 0.27039,0.270397 0.50527,0.58175 0.81119,0.811189 1.28022,0.96017 0.50638,-0.304809 2.02797,1.216783 0.34469,0.344689 0.50667,0.836138 0.81119,1.216784 0.47776,0.597205 1.08158,1.081585 1.62238,1.622377 0.81702,0.817021 1.61654,1.616545 2.43356,2.433567 0.94639,0.946387 1.89278,1.892774 2.83916,2.839161 0.2704,0.270396 0.61445,0.483285 0.81119,0.811188 0.21997,0.366608 0.16844,0.861054 0.4056,1.216784 0.33799,0.506993 1.57731,1.464646 2.02797,2.027972 0.30451,0.380645 0.54079,0.811189 0.81119,1.216783 0.40559,0.405594 0.84349,0.781276 1.21678,1.216783 0.43993,0.513251 0.82387,1.072302 1.21678,1.622378 0.28334,0.396665 0.4665,0.872094 0.81119,1.216783 0.34469,0.344689 0.91227,0.430544 1.21679,0.811189 0.26707,0.333848 0.18563,0.850176 0.40559,1.216783 0.39348,0.655807 1.1635,1.010541 1.62238,1.622378 0.18139,0.24185 0.22421,0.569339 0.40559,0.811189 0.22944,0.305918 0.58175,0.50527 0.81119,0.811188 0.18139,0.24185 0.22421,0.569339 0.4056,0.811189 0.22943,0.305919 0.58175,0.505271 0.81118,0.811189 0.18139,0.24185 0.25006,0.551958 0.4056,0.811189 0.18693,0.31155 1.08433,1.498182 1.21678,2.027972 0.0656,0.262323 -0.10042,0.560132 0,0.811189 0.18104,0.452599 0.59319,0.780782 0.81119,1.216783 0.3824,0.764796 0.42879,1.66877 0.81119,2.433566 0.218,0.436001 0.59319,0.780783 0.81119,1.216784 0.83371,1.667413 0.12113,0.726779 0.40559,2.433566 0.19519,1.171125 0.98396,2.080645 1.21679,3.244755 0.10605,0.53029 -0.13117,1.09773 0,1.62238 0.14664,0.58657 0.69261,1.02949 0.81119,1.62238 0.13257,0.66286 -0.16396,1.37216 0,2.02797 0.0733,0.29328 0.30999,0.52439 0.40559,0.81119 0.0428,0.12826 -0.0428,0.27733 0,0.40559 0.0956,0.2868 0.33227,0.5179 0.40559,0.81119 0.0656,0.26232 -0.0656,0.54887 0,0.81119 0.0733,0.29328 0.33228,0.5179 0.4056,0.81119 0.17605,0.70421 -0.17605,1.72935 0,2.43356 0.48965,1.9586 0.19274,-0.0201 0.81119,1.21679 0.0605,0.12092 -0.0428,0.27733 0,0.40559 0.0956,0.2868 0.3463,0.51475 0.40559,0.81119 0.0796,0.39772 0,0.81119 0,1.21678 0,0.94639 0,1.89278 0,2.83916 0,0.2704 -0.053,0.54605 0,0.81119 0.0839,0.41924 0.32175,0.79756 0.4056,1.21679 0.053,0.26514 -0.0656,0.54886 0,0.81119 0.0733,0.29328 0.33227,0.5179 0.40559,0.81118 0.0656,0.26233 0,0.5408 0,0.81119 0,0.2704 0,0.5408 0,0.81119 0,0.94639 0,1.89278 0,2.83916 0,1.08159 0,2.16317 0,3.24476 0,0.1352 0,0.27039 0,0.40559 0,0.1352 0.0956,0.31 0,0.4056 -0.0956,0.0956 -0.30999,-0.0956 -0.40559,0 -0.2028,0.20279 0.20279,1.01398 0,1.21678 -0.0956,0.0956 -0.31,-0.0956 -0.4056,0 -0.0956,0.0956 0.0956,0.31 0,0.40559 -0.0956,0.0956 -0.30999,-0.0956 -0.40559,0 -0.0956,0.0956 0.0956,0.31 0,0.4056 -0.0956,0.0956 -0.31,-0.0956 -0.4056,0 -0.0956,0.0956 0.0605,0.28467 0,0.40559 -0.24335,0.48672 -0.97342,0.73007 -1.21678,1.21679 -0.59679,1.19358 0.93959,-0.534 -0.40559,0.81119 -0.1352,0.13519 -0.23459,0.32008 -0.4056,0.40559 -0.5102,0.2551 -0.81119,-0.58251 -0.81119,0.40559"
     id="path87"
     inkscape:connector-curvature="0" />
  <path
     style="fill:none;stroke:#000000;stroke-width:1px;stroke-linecap:butt;stroke-linejoin:miter;stroke-opacity:1"
     d="m 139.11888,30.419575 c 0,-0.811189 0,-1.622378 0,-2.433566 0,-0.135199 -0.0956,-0.309995 0,-0.405595 0.0956,-0.0956 0.31,0.0956 0.4056,0 0.0956,-0.0956 -0.0956,-0.309995 0,-0.405594 0.0956,-0.0956 0.30999,0.0956 0.40559,0 0.0956,-0.0956 -0.0956,-0.309995 0,-0.405595 0.0956,-0.0956 0.31,0.0956 0.4056,0 0.0956,-0.0956 -0.0605,-0.284669 0,-0.405594 0.17101,-0.342027 0.64017,-0.469162 0.81119,-0.811189 0.0605,-0.120925 -0.0956,-0.309995 0,-0.405594 0.0956,-0.0956 0.30999,0.0956 0.40559,0 0.1912,-0.191199 -0.1912,-0.61999 0,-0.811189 0.0956,-0.0956 0.28467,0.06046 0.40559,0 0.17102,-0.08551 0.23459,-0.320088 0.4056,-0.405595 0.12092,-0.06046 0.30999,0.0956 0.40559,0 0.0956,-0.0956 -0.0605,-0.284669 0,-0.405594 0.0855,-0.171014 0.32009,-0.234581 0.4056,-0.405594 0.0605,-0.120925 -0.0956,-0.309995 0,-0.405595 0.1912,-0.191199 0.61999,0.191199 0.81119,0 0.0956,-0.0956 -0.0956,-0.309995 0,-0.405594 0.0956,-0.0956 0.30999,0.0956 0.40559,0 0.0956,-0.0956 -0.0956,-0.309995 0,-0.405595 0.1912,-0.191199 0.56934,0.120925 0.81119,0 0.34203,-0.171013 0.46916,-0.640175 0.81119,-0.811188 0.24185,-0.120925 0.56934,0.120924 0.81119,0 0.17101,-0.08551 0.23458,-0.320088 0.40559,-0.405595 0.24185,-0.120925 0.56934,0.120925 0.81119,0 0.17101,-0.08551 0.22421,-0.345132 0.40559,-0.405594 0.25653,-0.08551 0.54887,0.06558 0.81119,0 0.29329,-0.07332 0.51791,-0.332273 0.81119,-0.405595 0.31905,-0.07976 2.01178,0 2.43357,0 1.35198,0 2.70396,0 4.05594,0 0.2704,0 0.5408,0 0.81119,0 0.2704,0 0.55467,0.08551 0.81119,0 0.18139,-0.06046 0.22421,-0.345132 0.4056,-0.405594 0.25652,-0.08551 0.54079,0 0.81118,0 0.94639,0 1.89278,0 2.83916,0 1.35199,0 2.70397,0 4.05595,0 0.46949,0 1.66586,-0.09053 2.02797,0 0.29329,0.07332 0.51475,0.346306 0.81119,0.405594 0.39772,0.07954 0.81907,-0.07954 1.21678,0 0.29644,0.05929 0.51475,0.346306 0.81119,0.405595 0.39772,0.07954 0.81671,-0.06668 1.21679,0 0.42171,0.07029 0.79506,0.335308 1.21678,0.405594 0.66679,0.111132 1.36511,-0.132572 2.02797,0 0.41923,0.08385 0.79755,0.321748 1.21678,0.405595 0.26515,0.05303 0.5408,0 0.81119,0 0.4056,0.135198 0.80202,0.301902 1.21679,0.405594 0.26232,0.06558 0.54079,0 0.81118,0 0.81119,0 1.62238,0 2.43357,0 0.2704,0 0.54604,-0.05303 0.81119,0 0.41923,0.08385 0.81119,0.270396 1.21678,0.405594 0.4056,0.135199 0.81119,0.270397 1.21679,0.405595 0.40559,0.135198 0.79186,0.358381 1.21678,0.405594 0.80623,0.08958 1.6264,-0.08072 2.43357,0 0.55467,0.05547 1.07054,0.326761 1.62237,0.405595 0.40152,0.05736 0.81119,0 1.21679,0 0.40559,0 0.81119,0 1.21678,0 1.35198,0 2.70396,0 4.05594,0 1.21679,0 2.43357,0 3.65035,0 0.22662,0 1.78862,-0.07978 2.02798,0 0.27039,0.135198 0.54079,0.270396 0.81119,0.405594 0.13519,0 0.27733,-0.04275 0.40559,0 0.2868,0.0956 0.5179,0.332273 0.81119,0.405594 0.26232,0.06558 0.54886,-0.06558 0.81119,0 0.29328,0.07332 0.51474,0.346307 0.81119,0.405595 0.39771,0.07954 0.81906,-0.07954 1.21678,0 0.0191,0.0038 1.56631,0.788761 1.62238,0.811189 4.08282,1.633129 -0.86116,-0.316688 2.02797,0.405594 0.63507,0.158767 1.83259,1.096588 2.43357,1.216783 0.39771,0.07954 0.81906,-0.07954 1.21678,0 0.59288,0.118577 1.0358,0.664546 1.62238,0.811189 0.52464,0.131162 1.09773,-0.131161 1.62237,0 0.29329,0.07332 0.5305,0.293319 0.81119,0.405595 0.39696,0.158782 0.81983,0.246812 1.21679,0.405594 0.28069,0.112276 0.52439,0.309995 0.81118,0.405594 0.12826,0.04275 0.27734,-0.04275 0.4056,0 0.5736,0.191199 1.04878,0.61999 1.62238,0.811189 0.12826,0.04275 0.27733,-0.04275 0.40559,0 0.98366,0.327887 1.08034,0.979876 2.02797,1.216784 0.26233,0.06558 0.54887,-0.06558 0.81119,0 0.58657,0.146642 1.04878,0.619989 1.62238,0.811188 0.12826,0.04275 0.27733,-0.04275 0.40559,0 2.93789,0.979297 -0.63946,-0.116934 1.21679,0.811189 0.12092,0.06046 0.28467,-0.06046 0.40559,0 0.30983,0.154915 0.94214,1.125234 1.21679,1.216783 0.25652,0.08551 0.55466,-0.08551 0.81118,0 0.8836,-0.1516 0.1352,0.675991 0.4056,0.811189 0.24185,0.120925 0.56934,-0.120925 0.81119,0 0.12092,0.06046 -0.12093,0.345132 0,0.405595 0.24185,0.120925 0.56934,-0.120925 0.81119,0 0.12092,0.06046 -0.0605,0.284669 0,0.405594 0.0855,0.171014 0.23458,0.320088 0.40559,0.405594 0.12093,0.06046 0.28467,-0.06046 0.40559,0 0.17102,0.08551 0.24651,0.299537 0.4056,0.405595 0.25154,0.167693 0.55965,0.237902 0.81119,0.405594 0.31817,0.212117 0.46916,0.640175 0.81119,0.811189 0.38239,0.191199 0.85017,0.18563 1.21678,0.405595 0.3279,0.196742 0.49301,0.599072 0.81119,0.811188 0.11249,0.075 0.2704,0 0.40559,0 0.2704,0.270397 0.49302,0.599073 0.81119,0.811189 0.11249,0.075 0.31,-0.0956 0.4056,0 0.21376,0.213767 0.2242,0.569339 0.40559,0.811189 0.22944,0.305918 0.54079,0.540793 0.81119,0.811189 0.2704,0.270396 0.54079,0.540792 0.81119,0.811189 0.54079,0.540792 1.08158,1.081585 1.62238,1.622377 0.13519,0.135198 0.27039,0.270397 0.40559,0.405595 0.1352,0.135198 0.32009,0.23458 0.4056,0.405594 0.0605,0.120925 -0.0605,0.28467 0,0.405595 0.0855,0.171013 0.32008,0.23458 0.40559,0.405594 0.0605,0.120925 -0.12093,0.345132 0,0.405594 0.24185,0.120925 0.61999,-0.191199 0.81119,0 0.1912,0.191199 -0.0855,0.554669 0,0.811189 0.0605,0.181388 0.27039,0.270396 0.40559,0.405595 0.2704,0.270396 0.58175,0.50527 0.81119,0.811188 0.18139,0.24185 0.2704,0.540793 0.4056,0.811189 0.27039,0.540793 0.50011,1.103917 0.81118,1.622378 0.2508,0.417997 0.63015,0.764184 0.81119,1.216783 0.10043,0.251057 -0.0656,0.548866 0,0.811189 0.40515,1.620597 0.40871,0.0062 1.21679,1.622378 0.12092,0.241849 -0.053,0.546043 0,0.811188 0.16706,0.835324 0.45066,1.306916 0.81119,2.027972 0.13519,0.270397 0.33227,0.517903 0.40559,0.811189 0.0656,0.262323 -0.0656,0.548866 0,0.811189 0.0733,0.293286 0.29332,0.530499 0.40559,0.811189 0.15879,0.396955 0.24682,0.819828 0.4056,1.216783 0.11227,0.28069 0.33227,0.517903 0.40559,0.811189 0.0656,0.262323 -0.0656,0.548866 0,0.811189 -0.30126,0.750641 0.69296,0.743874 0.81119,1.216783 0.0984,0.393484 -0.0984,0.823299 0,1.216783 0.0928,0.370981 0.64018,0.469162 0.81119,0.811189 0.0605,0.120925 -0.0956,0.309995 0,0.405595 0.0956,0.0956 0.31,-0.0956 0.4056,0 0.0956,0.0956 -0.0605,0.284669 0,0.405594 1.06666,2.133333 -0.25548,-1.322145 0.81118,0.811189 0.0605,0.120925 -0.0605,0.284669 0,0.405594 0.0855,0.171014 0.32009,0.234581 0.4056,0.405595 0.0605,0.120925 -0.0328,0.274433 0,0.405594 0.10369,0.414769 0.27039,0.811189 0.40559,1.216783 0.1352,0.405595 0.24682,0.819828 0.4056,1.216784 0.11227,0.280689 0.3463,0.514747 0.40559,0.811188 0.0795,0.397718 -0.0795,0.819066 0,1.216784 0.1202,0.600977 1.05802,1.798499 1.21679,2.433566 0.0747,0.298882 -0.11882,1.790345 0,2.027972 0.0855,0.171014 0.32008,0.234581 0.40559,0.405595 0.0605,0.120924 0,0.270396 0,0.405594 0,0.135198 0,0.270396 0,0.405594 0,0.811189 0,1.622378 0,2.433567 0,2.568764 0,5.137529 0,7.706294 0,1.081585 0,2.16317 0,3.244755 0,0.135198 0,0.270396 0,0.405594 0,0.135198 0.0956,0.309995 0,0.405595 -0.0956,0.0956 -0.31,-0.0956 -0.40559,0 -0.27043,0.270422 0.27042,0.540766 0,0.811189 -0.0956,0.0956 -0.31,-0.0956 -0.4056,0 -0.0956,0.0956 0.0605,0.284669 0,0.405594 -0.1352,0.135198 -0.2704,0.270396 -0.40559,0.405594 -0.1352,0.135199 -0.32009,0.234581 -0.4056,0.405595 -0.12092,0.24185 0.12093,0.569339 0,0.811189 -0.0855,0.171013 -0.32009,0.23458 -0.40559,0.405594 -0.0605,0.120925 0.0956,0.309995 0,0.405594 -0.0956,0.0956 -0.31,-0.0956 -0.4056,0 -0.0956,0.0956 0.0956,0.309995 0,0.405595 -0.0956,0.0956 -0.30999,-0.0956 -0.40559,0 -0.1912,0.191199 0.12092,0.569339 0,0.811189 -0.0855,0.171013 -0.32009,0.234581 -0.4056,0.405594 -0.0605,0.120925 0.0605,0.28467 0,0.405595 -0.0855,0.171013 -0.32008,0.23458 -0.40559,0.405594 -0.12093,0.24185 0.1912,0.61999 0,0.811189 -0.0956,0.0956 -0.31,-0.0956 -0.40559,0 -0.0956,0.0956 0.0956,0.309995 0,0.405594 -0.0956,0.0956 -0.31,-0.0956 -0.4056,0 -0.1912,0.191199 0.1912,0.61999 0,0.811185 -0.0956,0.0956 -0.30999,-0.0956 -0.40559,0 -0.0956,0.0956 0.0605,0.28467 0,0.4056 -0.0855,0.17101 -0.32009,0.23458 -0.4056,0.40559 -0.0605,0.12093 0.0605,0.28467 0,0.4056 -0.84399,1.68798 0.028,-0.4336 -0.81119,0.40559 -0.0956,0.0956 0.0605,0.28467 0,0.4056 -0.0855,0.17101 -0.32008,0.23458 -0.40559,0.40559 -0.0605,0.12093 0.0956,0.31 0,0.40559 -0.83919,0.83919 0.0328,-1.28239 -0.81119,0.4056 -0.0605,0.12092 0.0605,0.28467 0,0.40559 -0.17101,0.34203 -0.64018,0.46917 -0.81119,0.81119 -0.0605,0.12093 0.0605,0.28467 0,0.4056 -0.84399,1.68798 0.028,-0.4336 -0.81119,0.40559 -0.0956,0.0956 0.0605,0.28467 0,0.4056 -0.12917,0.25835 -1.70927,1.70926 -2.02797,2.02797 -0.81119,0.81119 -1.62238,1.62238 -2.43357,2.43356 -0.27039,0.2704 -0.50527,0.58175 -0.81118,0.81119 -0.24185,0.18139 -0.59743,0.19183 -0.81119,0.4056 -0.34469,0.34469 -0.4665,0.87209 -0.81119,1.21678 -0.21377,0.21377 -0.56934,0.22421 -0.81119,0.4056 -0.45888,0.34415 -0.73952,0.8986 -1.21678,1.21678 -0.25154,0.16769 -0.59743,0.19183 -0.81119,0.40559 -0.0956,0.0956 0.0605,0.28467 0,0.4056 -0.844,1.68798 0.028,-0.4336 -0.81119,0.40559 -0.0956,0.0956 0.0605,0.28467 0,0.4056 -0.0855,0.17101 -0.2704,0.27039 -0.4056,0.40559 -1.24056,1.24056 0.74762,-0.66211 -1.21678,0.81119 -0.30592,0.22944 -0.49301,0.59907 -0.81119,0.81119 -0.11249,0.075 -0.2931,-0.075 -0.40559,0 -0.47726,0.31817 -0.73952,0.89861 -1.21679,1.21678 -0.50307,0.33539 -1.13867,0.44842 -1.62237,0.81119 -0.30592,0.22944 -0.50527,0.58175 -0.81119,0.81119 -0.24185,0.18139 -0.56934,0.22421 -0.81119,0.40559 -0.30592,0.22944 -0.49302,0.59908 -0.81119,0.81119 -0.11249,0.075 -0.28467,-0.0605 -0.40559,0 -0.17102,0.0855 -0.24651,0.29954 -0.4056,0.4056 -0.50308,0.33538 -1.1193,0.4758 -1.62238,0.81119 -0.66242,0.44161 -0.1665,0.60113 -1.21678,0.81118 -0.39772,0.0795 -0.8233,-0.0984 -1.21678,0 -0.18549,0.0464 -0.24651,0.29954 -0.4056,0.4056 -0.25154,0.16769 -0.5179,0.33227 -0.81119,0.40559 -0.26232,0.0656 -0.54886,-0.0656 -0.81119,0 -0.27039,0.1352 -0.54079,0.2704 -0.81118,0.4056 0,0.1352 0.12092,0.34513 0,0.40559 -0.24185,0.12093 -0.56934,-0.12092 -0.81119,0 -0.12093,0.0605 0.0956,0.31 0,0.4056 -0.38072,0.38071 -2.38577,1.03542 -2.83916,1.21678 -0.56138,0.22455 -1.08159,0.54079 -1.62238,0.81119 -0.2704,0.1352 -0.5179,0.33227 -0.81119,0.40559 -1.85625,0.46406 0.42172,-0.81925 -2.02797,0.4056 -0.34203,0.17101 -0.46916,0.64017 -0.81119,0.81119 -0.12093,0.0605 -0.28467,-0.0605 -0.4056,0 -0.17101,0.0855 -0.23458,0.32008 -0.40559,0.40559 -0.12093,0.0605 -0.31,-0.0956 -0.40559,0 -0.0956,0.0956 0.0956,0.31 0,0.40559 -0.0956,0.0956 -0.28467,-0.0605 -0.4056,0 -0.34203,0.17102 -0.46916,0.64018 -0.81119,0.81119 -0.12092,0.0605 -0.30999,-0.0956 -0.40559,0 -0.0956,0.0956 0.0956,0.31 0,0.4056 -0.27042,0.27042 -0.54077,-0.27042 -0.81119,0 -0.0956,0.0956 0.0605,0.28467 0,0.40559 -0.0855,0.17102 -0.2704,0.2704 -0.4056,0.4056 -0.13519,0.1352 -0.23458,0.32008 -0.40559,0.40559 -0.12092,0.0605 -0.30999,-0.0956 -0.40559,0 -0.0956,0.0956 0.0956,0.31 0,0.4056 -0.0956,0.0956 -0.4056,0.13519 -0.4056,0 0,-0.1352 0.2704,0 0.4056,0"
     id="path89"
     inkscape:connector-curvature="0" />
  <path
     style="fill:none;stroke:#000000;stroke-width:1px;stroke-linecap:butt;stroke-linejoin:miter;stroke-opacity:1"
     d="m 188.19581,31.230764 c 3.37995,0 6.7599,0 10.13986,0 0.41784,0 2.71945,0.05986 2.83916,0 0.17101,-0.08551 0.23458,-0.320088 0.40559,-0.405594 0.10487,-0.05243 2.14608,0 2.43357,0 0.28749,0 2.3287,-0.05243 2.43357,0 0.17101,0.08551 0.23458,0.320087 0.40559,0.405594 0.12093,0.06046 0.28467,-0.06046 0.40559,0 0.17102,0.08551 0.23459,0.320088 0.4056,0.405594 0.12092,0.06046 0.28467,-0.06046 0.40559,0 0.17102,0.08551 0.23458,0.320088 0.4056,0.405595 0.12092,0.06046 0.30999,-0.0956 0.40559,0 0.0956,0.0956 -0.0956,0.309995 0,0.405594 0.0956,0.0956 0.28467,-0.06046 0.4056,0 0.48671,0.243357 0.73007,0.973427 1.21678,1.216783 0.12092,0.06046 0.28467,-0.06046 0.40559,0 0.17102,0.08551 0.23459,0.320088 0.4056,0.405595 0.12092,0.06046 0.28467,-0.06046 0.40559,0 1.68799,0.843993 -0.43359,-0.028 0.4056,0.811189 0.0956,0.0956 0.28467,-0.06046 0.40559,0 0.17102,0.08551 0.23458,0.320087 0.4056,0.405594 0.12092,0.06046 0.30999,-0.0956 0.40559,0 0.83919,0.839189 -1.28239,-0.0328 0.4056,0.811189 0.12092,0.06046 0.27733,-0.04275 0.40559,0 0.81413,0.271378 0.80824,0.539811 1.62238,0.811189 0.12826,0.04275 0.28467,-0.06046 0.40559,0 0.17102,0.08551 0.24651,0.299536 0.4056,0.405594 -0.0462,0.768369 0.94638,0.270396 1.21678,0.405595 0.17101,0.08551 0.23458,0.320087 0.40559,0.405594 0.12093,0.06046 0.2704,0 0.4056,0 0.1352,0.135198 0.24651,0.299536 0.40559,0.405594 0.25154,0.167693 0.52439,0.309995 0.81119,0.405595 0.12826,0.04275 0.31,-0.0956 0.4056,0 0.0956,0.0956 -0.0956,0.309995 0,0.405594 0.19119,0.191199 0.61999,-0.191199 0.81118,0 0.0956,0.0956 -0.0956,0.309995 0,0.405595 0.1912,0.191199 0.56934,-0.120925 0.81119,0 0.17102,0.08551 0.23458,0.320087 0.4056,0.405594 0.12092,0.06046 0.30999,-0.0956 0.40559,0 0.0956,0.0956 -0.0956,0.309995 0,0.405594 0.21377,0.213767 0.55965,0.237902 0.81119,0.405595 0.15909,0.106058 0.23458,0.320087 0.4056,0.405594 0.12092,0.06046 0.28467,-0.06046 0.40559,0 0.48671,0.243357 0.73007,0.973427 1.21678,1.216783 0.12093,0.06046 0.27734,-0.04275 0.4056,0 2.93789,0.979297 -0.63947,-0.116934 1.21678,0.811189 0.12093,0.06046 0.28467,-0.06046 0.4056,0 0.48671,0.243357 0.73007,0.973427 1.21678,1.216784 0.12092,0.06046 0.28467,-0.06046 0.40559,0 0.34203,0.171013 0.46916,0.640175 0.81119,0.811188 0.12093,0.06046 0.28467,-0.06046 0.4056,0 0.34202,0.171014 0.46916,0.640176 0.81119,0.811189 0.12092,0.06046 0.28466,-0.06046 0.40559,0 0.17101,0.08551 0.23458,0.320088 0.40559,0.405595 0.24185,0.120924 0.56934,-0.120925 0.81119,0 0.17102,0.08551 0.23458,0.320087 0.4056,0.405594 0.12092,0.06046 0.30999,-0.0956 0.40559,0 0.0956,0.0956 -0.0956,0.309995 0,0.405594 0.0956,0.0956 0.28467,-0.06046 0.4056,0 0.17101,0.08551 0.23458,0.320088 0.40559,0.405595 0.12093,0.06046 0.28467,-0.06046 0.40559,0 0.34203,0.171013 0.44842,0.690264 0.81119,0.811189 0.25652,0.08551 0.54887,-0.06558 0.81119,0 0.7341,-0.244464 0.75434,0.657039 1.21679,0.811188 1.75606,0.585357 -0.14908,-0.775373 1.62237,0.405595 0.15909,0.106058 0.23458,0.320087 0.4056,0.405594 0.12092,0.06046 0.27733,-0.04275 0.40559,0 0.2868,0.0956 0.54079,0.270397 0.81119,0.405595 0.2704,0.135198 0.55965,0.237901 0.81119,0.405594 0.15909,0.106058 0.2201,0.359222 0.40559,0.405595 0.39349,0.09837 0.81907,-0.07954 1.21679,0 0.7341,-0.244464 0.75433,0.657039 1.21678,0.811188 0.25652,0.08551 0.54604,-0.05303 0.81119,0 0.47113,0.09423 1.56444,0.502165 2.02797,0.811189 0.15909,0.106058 0.23458,0.320088 0.4056,0.405595 0.12092,0.06046 0.28467,-0.06046 0.40559,0 0.17101,0.08551 0.23458,0.320087 0.40559,0.405594 0.12093,0.06046 0.28467,-0.06046 0.4056,0 1.68799,0.843993 -0.4336,-0.028 0.40559,0.811189 0.1912,0.191199 0.61999,-0.191199 0.81119,0 0.0956,0.0956 -0.0956,0.309995 0,0.405594 0.0956,0.0956 0.28467,-0.06046 0.4056,0 0.87771,0.438857 -0.0665,0.372332 0.81119,0.811189 0.12092,0.06046 0.27039,0 0.40559,0 0.1352,0.135198 0.23458,0.320088 0.40559,0.405594 0.12093,0.06046 0.31,-0.0956 0.4056,0 0.83919,0.83919 -1.28239,-0.0328 0.40559,0.811189 0.12093,0.06046 0.2704,0 0.4056,0 0.1352,0.135198 0.23458,0.320088 0.40559,0.405595 0.12093,0.06046 0.31,-0.0956 0.4056,0 0.0956,0.0956 -0.0956,0.309995 0,0.405594 0.83919,0.839189 -0.0328,-1.282392 0.81119,0.405595 0.0605,0.120924 -0.0956,0.309994 0,0.405594 0.0956,0.0956 0.28466,-0.06046 0.40559,0 0.17101,0.08551 0.24651,0.299536 0.40559,0.405594 0.50308,0.335386 1.1193,0.475804 1.62238,0.811189 0.31818,0.212116 0.46916,0.640175 0.81119,0.811189 0.12093,0.06046 0.28467,-0.06046 0.4056,0 0.48671,0.243357 0.73007,0.973427 1.21678,1.216783 0.71799,0.358996 0.13859,-0.603296 0.81119,0.405595 0.39404,0.591065 0.25321,0.844798 0.81119,1.216783 0.16157,0.107718 1.59301,0.767144 1.62237,0.811189 0.14999,0.224983 -0.1912,0.61999 0,0.811189 0.30232,0.302312 0.91447,0.103282 1.21679,0.405594 0.1912,0.191199 -0.12093,0.569339 0,0.811189 0.19273,0.38547 2.0819,1.964686 2.43356,2.433566 0.36278,0.4837 0.47581,1.1193 0.81119,1.622378 0.10606,0.159087 0.29954,0.246507 0.4056,0.405594 0.47559,0.713394 0.48139,1.203487 0.81119,2.027972 0.22455,0.56138 0.61999,1.048781 0.81118,1.622378 0.48307,1.449199 -1.57034,-1.670852 0.4056,1.622378 0.19674,0.327903 0.64017,0.469161 0.81119,0.811189 0.12092,0.241849 -0.0656,0.548865 0,0.811188 0.14664,0.586572 0.69261,1.029495 0.81119,1.622378 0.0795,0.397718 -0.15064,0.840198 0,1.216783 0.14202,0.355048 0.58175,0.505271 0.81119,0.811189 1.86739,2.489864 -0.79373,-0.776259 0.40559,1.622378 0.25652,0.513041 0.96026,0.703742 1.21678,1.216783 0.0605,0.120925 -0.0605,0.284669 0,0.405594 0.0855,0.171014 0.32009,0.234581 0.4056,0.405595 0.49948,0.998959 -1.17734,-0.366144 0.40559,1.216783 0.0956,0.0956 0.34513,-0.120925 0.4056,0 0.12092,0.24185 -0.0656,0.548866 0,0.811189 0.19685,0.787411 0.926,1.301021 1.21678,2.027972 0.10042,0.251057 -0.0855,0.554668 0,0.811189 0.0605,0.181387 0.2704,0.270396 0.40559,0.405594 0.1352,0.270396 0.34631,0.514747 0.4056,0.811189 0.0795,0.397718 -0.0795,0.819065 0,1.216783 0.12019,0.600977 1.05801,1.7985 1.21678,2.433567 0.0656,0.262323 -0.053,0.546043 0,0.811188 0.16707,0.835324 0.45066,1.306916 0.81119,2.027973 0.1352,0.270396 0.31,0.52439 0.40559,0.811188 0.0428,0.128261 -0.0428,0.277335 0,0.405595 0.1912,0.573597 0.66455,1.035809 0.81119,1.622379 0.0656,0.26232 -0.0855,0.55467 0,0.81119 0.0605,0.18138 0.32009,0.23458 0.4056,0.40559 0.1352,0.4056 0.27039,0.81119 0.40559,1.21678 0,0.1352 -0.0428,0.27734 0,0.4056 0.1912,0.5736 0.58664,1.061 0.81119,1.62238 0.94856,0.21108 0.24742,1.14784 0.4056,1.62237 0.19119,0.5736 0.66454,1.03581 0.81118,1.62238 0.0656,0.26233 -0.053,0.54605 0,0.81119 0.0838,0.41923 0.32175,0.79755 0.4056,1.21678 0.10606,0.5303 -0.13116,1.09774 0,1.62238 0.14664,0.58657 0.66454,1.03581 0.81119,1.62238 0.0656,0.26232 -0.0855,0.55467 0,0.81119 0.12092,0.36277 0.64017,0.46916 0.81119,0.81119 0.12092,0.24185 -0.12093,0.56934 0,0.81119 0.0855,0.17101 0.32008,0.23458 0.40559,0.40559 0.0605,0.12093 -0.0427,0.27733 0,0.40559 0.1912,0.5736 0.61999,1.04879 0.81119,1.62238 0.84541,0.56016 0.22406,1.70744 0.40559,2.43357 0.14665,0.58657 0.61999,1.04878 0.81119,1.62238 0.0745,0.22361 -0.0867,1.53566 0,1.62237 0.0956,0.0956 0.31,-0.0956 0.4056,0 0.0956,0.0956 0,0.2704 0,0.4056 0,0.28211 -0.0733,1.88129 0,2.02797 0.0855,0.17101 0.32008,0.23458 0.40559,0.4056 0.0605,0.12092 0,0.27039 0,0.40559 0.1352,0.1352 0.32009,0.23458 0.4056,0.40559 0.0617,0.12344 0,1.03412 0,1.21679 0,0.81119 0,1.62237 0,2.43356"
     id="path91"
     inkscape:connector-curvature="0" />
</svg>
